<svg width="115" height="100" viewBox="0 0 115 100" fill="none" xmlns="http://www.w3.org/2000/svg">
<rect width="115" height="100" rx="8" fill="#3E59E8"/>
<path d="M48.375 25.625C50.3837 25.625 52.3473 26.2207 54.0175 27.3366C55.6877 28.4526 56.9895 30.0388 57.7582 31.8946C58.5269 33.7504 58.728 35.7925 58.3361 37.7626C57.9442 39.7328 56.9769 41.5424 55.5566 42.9628C54.1362 44.3832 52.3265 45.3505 50.3564 45.7424C48.3863 46.1342 46.3442 45.9331 44.4884 45.1644C42.6326 44.3957 41.0464 43.0939 39.9304 41.4238C38.8144 39.7536 38.2188 37.79 38.2188 35.7812C38.2188 33.0876 39.2888 30.5044 41.1934 28.5997C43.0981 26.695 45.6814 25.625 48.375 25.625ZM48.375 21.5625C45.5628 21.5625 42.8137 22.3964 40.4755 23.9588C38.1372 25.5212 36.3148 27.7418 35.2386 30.34C34.1624 32.9381 33.8808 35.797 34.4295 38.5552C34.9781 41.3134 36.3323 43.8469 38.3208 45.8354C40.3094 47.824 42.8429 49.1782 45.6011 49.7268C48.3592 50.2754 51.2181 49.9938 53.8163 48.9177C56.4144 47.8415 58.6351 46.019 60.1975 43.6808C61.7598 41.3425 62.5938 38.5935 62.5938 35.7812C62.5938 32.0102 61.0957 28.3936 58.4292 25.7271C55.7626 23.0605 52.146 21.5625 48.375 21.5625ZM68.6875 78.4375H64.625V68.2812C64.625 65.5876 63.555 63.0044 61.6503 61.0997C59.7456 59.195 57.1624 58.125 54.4688 58.125H42.2812C39.5876 58.125 37.0044 59.195 35.0997 61.0997C33.195 63.0044 32.125 65.5876 32.125 68.2812V78.4375H28.0625V68.2812C28.0625 64.5102 29.5605 60.8936 32.2271 58.2271C34.8936 55.5605 38.5102 54.0625 42.2812 54.0625H54.4688C58.2398 54.0625 61.8564 55.5605 64.5229 58.2271C67.1895 60.8936 68.6875 64.5102 68.6875 68.2812V78.4375ZM68.6875 25.625H89V29.6875H68.6875V25.625ZM68.6875 35.7812H89V39.8438H68.6875V35.7812ZM68.6875 45.9375H82.9062V50H68.6875V45.9375Z" fill="white"/>
</svg>
