<svg width="30" height="30" viewBox="0 0 30 30" fill="none" xmlns="http://www.w3.org/2000/svg">
<g clip-path="url(#clip0_236_287)">
<path d="M27.092 23.1916C26.2884 22.4752 25.5849 21.654 25.0003 20.75C24.3615 19.5023 23.979 18.1394 23.8753 16.7416V12.625C23.8808 10.4296 23.0845 8.30786 21.6359 6.65827C20.1874 5.00869 18.1863 3.94484 16.0087 3.66663V2.59163C16.0087 2.29657 15.8914 2.0136 15.6828 1.80497C15.4742 1.59634 15.1912 1.47913 14.8962 1.47913C14.6011 1.47913 14.3181 1.59634 14.1095 1.80497C13.9009 2.0136 13.7837 2.29657 13.7837 2.59163V3.68329C11.6255 3.98157 9.64863 5.05184 8.2191 6.69588C6.78956 8.33992 6.00427 10.4463 6.00866 12.625V16.7416C5.90495 18.1394 5.52244 19.5023 4.88366 20.75C4.30939 21.6519 3.61715 22.4731 2.82533 23.1916C2.73644 23.2697 2.66519 23.3658 2.61634 23.4736C2.56749 23.5814 2.54214 23.6983 2.54199 23.8166V24.95C2.54199 25.171 2.62979 25.3829 2.78607 25.5392C2.94235 25.6955 3.15431 25.7833 3.37533 25.7833H26.542C26.763 25.7833 26.975 25.6955 27.1312 25.5392C27.2875 25.3829 27.3753 25.171 27.3753 24.95V23.8166C27.3752 23.6983 27.3498 23.5814 27.301 23.4736C27.2521 23.3658 27.1809 23.2697 27.092 23.1916ZM4.27533 24.1166C5.05049 23.3675 5.73313 22.5282 6.30866 21.6166C7.11348 20.1099 7.58256 18.4468 7.68366 16.7416V12.625C7.65061 11.6483 7.81443 10.675 8.16536 9.76302C8.5163 8.85101 9.04717 8.01895 9.72636 7.31638C10.4056 6.61381 11.2192 6.0551 12.1188 5.67352C13.0184 5.29194 13.9856 5.0953 14.9628 5.0953C15.94 5.0953 16.9072 5.29194 17.8068 5.67352C18.7065 6.0551 19.5201 6.61381 20.1993 7.31638C20.8785 8.01895 21.4094 8.85101 21.7603 9.76302C22.1112 10.675 22.275 11.6483 22.242 12.625V16.7416C22.3431 18.4468 22.8122 20.1099 23.617 21.6166C24.1925 22.5282 24.8752 23.3675 25.6503 24.1166H4.27533Z" fill="#1D1E20"/>
<path d="M14.9999 28.5666C15.5249 28.5545 16.0286 28.3572 16.4221 28.0095C16.8156 27.6618 17.0734 27.1861 17.1499 26.6666H12.7666C12.8453 27.2002 13.1152 27.6871 13.526 28.0366C13.9368 28.3861 14.4606 28.5744 14.9999 28.5666Z" fill="#1D1E20"/>
<circle cx="19.6875" cy="8.09412" r="7.5" fill="#FD781E"/>
<path d="M16.8409 12V11.233L19.7216 8.07955C20.0597 7.71023 20.3381 7.3892 20.5568 7.11648C20.7756 6.84091 20.9375 6.58239 21.0426 6.34091C21.1506 6.09659 21.2045 5.84091 21.2045 5.57386C21.2045 5.26705 21.1307 5.00142 20.983 4.77699C20.8381 4.55256 20.6392 4.37926 20.3864 4.2571C20.1335 4.13494 19.8494 4.07386 19.5341 4.07386C19.1989 4.07386 18.9062 4.14347 18.6562 4.28267C18.4091 4.41903 18.2173 4.6108 18.081 4.85795C17.9474 5.10511 17.8807 5.39489 17.8807 5.72727H16.875C16.875 5.21591 16.9929 4.76705 17.2287 4.38068C17.4645 3.99432 17.7855 3.69318 18.1918 3.47727C18.6009 3.26136 19.0597 3.15341 19.5682 3.15341C20.0795 3.15341 20.5327 3.26136 20.9276 3.47727C21.3224 3.69318 21.6321 3.98437 21.8565 4.35085C22.081 4.71733 22.1932 5.125 22.1932 5.57386C22.1932 5.89489 22.1349 6.20881 22.0185 6.51562C21.9048 6.8196 21.706 7.15909 21.4219 7.53409C21.1406 7.90625 20.75 8.3608 20.25 8.89773L18.2898 10.9943V11.0625H22.3466V12H16.8409Z" fill="white"/>
</g>
<defs>
<clipPath id="clip0_236_287">
<rect width="30" height="30" fill="white"/>
</clipPath>
</defs>
</svg>
